<?xml version="1.0" encoding="utf-8"?>
<!-- Generator: Adobe Illustrator 24.0.3, SVG Export Plug-In . SVG Version: 6.00 Build 0)  -->
<svg version="1.1" xmlns="http://www.w3.org/2000/svg" xmlns:xlink="http://www.w3.org/1999/xlink" x="0px" y="0px"
	 viewBox="0 0 982 330" style="enable-background:new 0 0 982 330;" xml:space="preserve">
<style type="text/css">
	.st0{fill:#FFFFFF;}
</style>
<g id="Layer_1">
</g>
<g id="Layer_2">
	<g>
		<path d="M312.73,166.25c-0.02-4.88-3.54-8.97-8.39-9.71l-3.6-0.56c-4.17-0.64-7.38-3.89-7.98-8.08c-0.15-1.06-0.32-2.14-0.5-3.22
			c-0.69-4.15,1.36-8.22,5.11-10.11l3.29-1.66c4.38-2.21,6.47-7.21,4.96-11.89l-0.2-0.61c-1.53-4.68-6.16-7.5-11-6.71l-3.6,0.59
			c-4.16,0.67-8.21-1.42-10.08-5.2c-0.48-0.97-0.98-1.94-1.48-2.9c-1.96-3.74-1.27-8.25,1.72-11.21l2.59-2.57
			c3.49-3.46,3.92-8.87,1.03-12.86l-0.38-0.53c-2.9-3.97-8.17-5.22-12.53-2.97l-3.26,1.68c-3.74,1.92-8.24,1.19-11.2-1.83
			c-0.75-0.77-1.52-1.54-2.29-2.3c-3.02-2.95-3.75-7.45-1.82-11.19l1.68-3.26c2.25-4.36,0.99-9.64-2.98-12.54l-0.53-0.39
			c-3.98-2.89-9.39-2.45-12.85,1.03l-2.57,2.59c-2.97,2.99-7.47,3.68-11.22,1.72c-0.96-0.5-1.94-1-2.92-1.49
			c-3.78-1.88-5.87-5.93-5.19-10.08l0.59-3.61c0.79-4.85-2.04-9.47-6.71-11l-0.63-0.2c-4.68-1.51-9.68,0.58-11.89,4.96l-1.66,3.28
			c-1.89,3.75-5.96,5.8-10.12,5.1c-1.08-0.18-2.17-0.35-3.24-0.51c-4.18-0.61-7.43-3.82-8.07-7.98l-0.56-3.63
			c-0.75-4.84-4.83-8.37-9.72-8.39l-0.4,0l-0.39,0c-4.89,0.01-8.97,3.55-9.72,8.4l-0.55,3.6c-0.64,4.17-3.88,7.38-8.07,8
			c-1.06,0.16-2.13,0.32-3.18,0.5c-4.12,0.69-8.17-1.32-10.08-5.02l-1.76-3.41c-2.27-4.38-7.32-6.41-12.01-4.82l-0.16,0.05
			c-4.43,1.51-7.2,5.99-6.59,10.65c0.18,1.39,0.37,2.78,0.56,4.17c0.56,4.08-1.54,8.05-5.23,9.87c-0.99,0.49-1.98,1-2.95,1.5
			c-3.76,1.97-8.28,1.26-11.27-1.78l-2.47-2.52c-3.44-3.51-8.85-3.96-12.85-1.09l-0.57,0.41c-3.97,2.88-5.24,8.14-3.03,12.5
			l1.66,3.28c1.9,3.75,1.14,8.24-1.88,11.17c-0.8,0.78-1.61,1.58-2.4,2.38c-2.95,2.99-7.44,3.72-11.17,1.8l-3.31-1.7
			c-4.35-2.24-9.61-1-12.52,2.95l-0.4,0.55c-2.9,3.98-2.48,9.39,1,12.86l2.57,2.56c2.98,2.97,3.66,7.48,1.69,11.22
			c-0.52,0.99-1.03,1.98-1.52,2.96c-1.88,3.77-5.93,5.84-10.07,5.17l-3.66-0.59c-4.84-0.79-9.46,2.03-11,6.7l-0.2,0.62
			c-1.52,4.68,0.56,9.69,4.94,11.9l3.29,1.67c3.75,1.89,5.79,5.96,5.1,10.11c-0.18,1.07-0.35,2.17-0.51,3.25
			c-0.61,4.19-3.82,7.43-7.98,8.08l-3.62,0.56c-4.85,0.75-8.37,4.83-8.39,9.72l0,0.38l0,0.39c0.02,4.88,3.54,8.96,8.38,9.71
			l3.64,0.56c4.16,0.64,7.37,3.89,7.98,8.07c0.16,1.07,0.33,2.15,0.51,3.21c0.7,4.16-1.35,8.23-5.11,10.12l-3.27,1.65
			c-4.39,2.21-6.47,7.21-4.96,11.9l0.2,0.61c1.53,4.67,6.15,7.49,10.99,6.71l3.63-0.59c4.15-0.67,8.2,1.42,10.07,5.19
			c0.48,0.97,0.98,1.95,1.49,2.91c1.96,3.74,1.27,8.25-1.72,11.22l-2.58,2.56c-3.49,3.46-3.93,8.87-1.03,12.85l0.39,0.53
			c2.9,3.96,8.17,5.22,12.52,2.98l3.26-1.68c3.74-1.92,8.24-1.19,11.19,1.83c0.75,0.76,1.52,1.54,2.3,2.3
			c3.02,2.95,3.75,7.45,1.82,11.19l-1.68,3.26c-2.24,4.36-0.99,9.63,2.97,12.53l0.53,0.39c3.98,2.89,9.39,2.46,12.85-1.03l2.56-2.58
			c2.97-2.99,7.48-3.68,11.22-1.71c0.96,0.5,1.93,1,2.91,1.49c3.78,1.88,5.86,5.93,5.19,10.08l-0.59,3.62
			c-0.79,4.85,2.04,9.47,6.71,11l0.62,0.2c4.68,1.51,9.68-0.57,11.89-4.95l1.65-3.28c1.89-3.75,5.96-5.8,10.12-5.1
			c1.07,0.18,2.16,0.35,3.23,0.51c4.18,0.61,7.42,3.82,8.07,7.98l0.56,3.63c0.75,4.84,4.83,8.37,9.72,8.39l0.39,0l0.39,0
			c4.88-0.01,8.97-3.54,9.72-8.39l0.56-3.63c0.64-4.16,3.89-7.37,8.07-7.98c1.08-0.16,2.17-0.33,3.23-0.51
			c4.16-0.7,8.23,1.35,10.12,5.1l1.66,3.28c2.21,4.38,7.21,6.46,11.89,4.96l0.61-0.2c4.68-1.53,7.5-6.15,6.71-11l-0.59-3.62
			c-0.67-4.15,1.41-8.2,5.19-10.08c0.98-0.49,1.96-0.99,2.91-1.49c3.74-1.96,8.25-1.27,11.22,1.72l2.56,2.58
			c3.46,3.49,8.87,3.92,12.85,1.03l0.53-0.38c3.97-2.9,5.22-8.17,2.97-12.53l-1.68-3.26c-1.92-3.74-1.19-8.24,1.83-11.19
			c0.77-0.75,1.54-1.53,2.3-2.3c2.95-3.02,7.45-3.75,11.2-1.83l3.25,1.67c4.36,2.24,9.63,0.99,12.53-2.98l0.38-0.53
			c2.89-3.98,2.45-9.39-1.03-12.85l-2.58-2.57c-2.99-2.97-3.68-7.47-1.72-11.21c0.5-0.96,1-1.94,1.48-2.91
			c1.88-3.78,5.93-5.87,10.08-5.2l3.6,0.58c4.85,0.79,9.47-2.04,11-6.71l0.2-0.61c1.51-4.68-0.58-9.68-4.95-11.89l-3.26-1.65
			c-3.76-1.9-5.8-5.97-5.1-10.13c0.18-1.07,0.35-2.16,0.51-3.23c0.62-4.18,3.82-7.41,7.98-8.06l3.64-0.56
			c4.85-0.75,8.37-4.84,8.39-9.72l0-0.39L312.73,166.25z M279.49,166.87l-80.85,38.37c-4.62,2.19-6.59,7.73-4.4,12.36
			c1.06,2.23,2.93,3.92,5.27,4.75c1.02,0.37,2.08,0.55,3.14,0.55c1.35,0,2.7-0.3,3.95-0.89l70.91-33.65
			c-4.21,22.86-15.04,43.73-31.52,60.21c-21.58,21.58-50.67,33.47-81.9,33.47c-0.01,0-0.01,0-0.01,0c-17.87,0-35.03-3.9-50.5-11.28
			l54.78-26c3.2-1.52,4.57-5.36,3.05-8.55l-0.09-0.18c-1.52-3.2-5.36-4.57-8.55-3.05L99.7,262.89c-6.26-4.15-12.13-8.95-17.53-14.35
			c-1.07-1.07-2.1-2.16-3.12-3.26l99.64-47.28c2.44-1.16,4.29-3.21,5.21-5.78c0.91-2.57,0.78-5.32-0.38-7.77
			c-1.16-2.44-3.21-4.29-5.78-5.21c-2.57-0.91-5.32-0.78-7.77,0.38L66.38,228.78c-4.32-6.85-7.87-14.13-10.64-21.74l63.52-30.14
			c4.62-2.19,6.6-7.73,4.4-12.36c-1.06-2.23-2.93-3.92-5.27-4.75c-2.34-0.83-4.86-0.71-7.09,0.35l-60.54,28.73
			c-1.36-7.23-2.07-14.66-2.07-22.21c0-2.37,0.08-4.72,0.21-7.05c0.61-0.15,1.22-0.36,1.8-0.64l93.24-44.25
			c4.62-2.19,6.59-7.73,4.4-12.35c-1.06-2.23-2.93-3.92-5.27-4.75c-2.34-0.83-4.86-0.71-7.09,0.35L52.23,137.7
			c5.02-19.99,15.25-38.2,30-52.94c21.63-21.6,50.73-33.5,81.94-33.51c0.01,0,0.02,0,0.04,0c10.14,0,20.06,1.26,29.56,3.7
			L153.24,74.2c-3.2,1.52-4.57,5.36-3.05,8.55c1.1,2.31,3.41,3.67,5.81,3.67c0.92,0,1.86-0.2,2.74-0.62l52.42-24.88
			c12.93,5.64,24.76,13.66,34.93,23.83c0.4,0.4,0.79,0.81,1.19,1.22l-87.32,41.44c-1.92,0.91-3.38,2.52-4.09,4.53
			s-0.61,4.17,0.31,6.1c1.36,2.87,4.23,4.56,7.22,4.56c1.14,0,2.31-0.25,3.41-0.77l91.07-43.22c5.93,8.22,10.71,17.16,14.25,26.63
			l-62.83,29.81c-2.11,1-3.02,3.54-2.01,5.65c0.49,1.02,1.34,1.8,2.41,2.18c0.47,0.17,0.95,0.25,1.43,0.25
			c0.62,0,1.24-0.14,1.82-0.41l61.88-29.37c3.09,10.63,4.69,21.81,4.68,33.28C279.49,166.71,279.49,166.79,279.49,166.87z"/>
		<g>
			<path d="M356.16,287.31c-0.88-1.28-1.31-2.85-1.31-4.74c0-28.08-0.54-51.79-1.61-71.13c-3.22-0.54-5.51-0.81-6.85-0.81
				c-5.51,0-9.47,0.47-11.89,1.41c0,7.53,0.6,18.88,1.81,34.06c1.07,16.12,1.61,27.54,1.61,34.26c0,1.34-0.4,2.59-1.21,3.73
				c-0.81,1.14-1.81,1.71-3.02,1.71c-1.75,0-3.36-3.09-4.84-9.27c-2.15-9.13-3.9-28.28-5.24-57.43
				c-0.94-19.75-1.41-40.97-1.41-63.68c-0.13-4.16-0.2-10.08-0.2-17.73c0-2.42,1.14-3.63,3.43-3.63c1.34,0,2.72,0.34,4.13,1.01
				c1.41,0.67,2.45,1.41,3.12,2.22c-0.54,4.3-0.81,9.34-0.81,15.11c0,5.64,0.27,12.49,0.81,20.55c0.4,9.27,0.6,16.26,0.6,20.96v3.63
				c-0.14,1.08-0.2,2.35-0.2,3.83c0,1.34,0.13,3.09,0.4,5.24c0.81,0,2.15-0.07,4.03-0.2c1.88-0.13,3.76-0.33,5.64-0.6
				c4.43-0.4,7.72-0.6,9.87-0.6c0-11.69-0.13-22.5-0.4-32.44l-0.4-33.65v-5.44c1.74,0,3.29,0.3,4.63,0.91
				c1.34,0.6,2.35,1.38,3.02,2.32c1.21,1.48,1.95,4.03,2.22,7.66v4.63c0,11.56,0.67,33.65,2.01,66.3
				c1.21,29.56,1.81,51.72,1.81,66.5c0,1.88-0.57,3.56-1.71,5.04c-1.14,1.48-2.52,2.22-4.13,2.22
				C358.34,289.22,357.03,288.58,356.16,287.31z"/>
			<path d="M440.89,273.71c0-6.45-2.79-29.52-8.36-69.22c-5.58-39.7-9.1-61.36-10.58-64.99c1.74-3.22,4.1-4.84,7.05-4.84
				c3.09,0,5.98,6.99,8.67,20.96c2.55,14.78,4.7,31.71,6.45,50.78l1.41,16.32c0.81,9.14,1.28,13.77,1.41,13.91l2.01-16.93
				l1.21-10.48c1.75-15.32,2.89-26.13,3.43-32.44c0.67-8.33,1.01-14.04,1.01-17.13v-3.83c0-1.48,0.54-2.89,1.61-4.23
				c1.07-1.34,2.28-2.02,3.63-2.02c4.84,0,7.25,2.02,7.25,6.05v3.02c0,7.66,0.77,15.89,2.32,24.69c1.54,8.8,3.79,19.31,6.75,31.54
				c1.88,7.12,3.76,15.79,5.64,26c0.4-4.43,1.68-15.18,3.83-32.24c2.15-15.58,3.73-28.85,4.74-39.8
				c1.01-10.95,1.51-21.19,1.51-30.73c0-3.09,0.5-5.27,1.51-6.55c1.01-1.28,2.92-1.92,5.74-1.92c1.61,0,3.05,0.5,4.33,1.51
				c1.28,1.01,1.91,2.32,1.91,3.93c0,1.48-0.67,3.02-2.01,4.63c0,9.67-0.74,20.99-2.22,33.96c-1.48,12.97-3.29,25.29-5.44,36.98
				c-2.15,11.42-3.96,23.68-5.44,36.78c-1.48,13.1-2.22,24.62-2.22,34.56c0,2.15-0.5,3.86-1.51,5.14c-1.01,1.27-2.52,1.91-4.53,1.91
				c-1.48,0-3.22-2.75-5.24-8.26c-2.55-7.66-5.71-22.9-9.47-45.74l-3.63-23.58l-1.81-13.1c-1.75,12.23-3.06,22.07-3.93,29.52
				c-0.88,7.46-1.71,16.29-2.52,26.5c-0.94,9.81-1.41,19.48-1.41,29.02c0,1.34-0.57,2.62-1.71,3.83c-1.14,1.21-2.45,1.81-3.93,1.81
				C443.38,289.02,440.89,283.92,440.89,273.71z"/>
			<path d="M559.08,287.31c-0.88-1.28-1.31-2.85-1.31-4.74c0-28.08-0.54-51.79-1.61-71.13c-3.22-0.54-5.51-0.81-6.85-0.81
				c-5.51,0-9.47,0.47-11.89,1.41c0,7.53,0.6,18.88,1.81,34.06c1.07,16.12,1.61,27.54,1.61,34.26c0,1.34-0.4,2.59-1.21,3.73
				c-0.81,1.14-1.81,1.71-3.02,1.71c-1.75,0-3.36-3.09-4.84-9.27c-2.15-9.13-3.9-28.28-5.24-57.43
				c-0.94-19.75-1.41-40.97-1.41-63.68c-0.13-4.16-0.2-10.08-0.2-17.73c0-2.42,1.14-3.63,3.43-3.63c1.34,0,2.72,0.34,4.13,1.01
				c1.41,0.67,2.45,1.41,3.12,2.22c-0.54,4.3-0.81,9.34-0.81,15.11c0,5.64,0.27,12.49,0.81,20.55c0.4,9.27,0.6,16.26,0.6,20.96v3.63
				c-0.14,1.08-0.2,2.35-0.2,3.83c0,1.34,0.13,3.09,0.4,5.24c0.81,0,2.15-0.07,4.03-0.2c1.88-0.13,3.76-0.33,5.64-0.6
				c4.43-0.4,7.72-0.6,9.87-0.6c0-11.69-0.13-22.5-0.4-32.44l-0.4-33.65v-5.44c1.74,0,3.29,0.3,4.63,0.91
				c1.34,0.6,2.35,1.38,3.02,2.32c1.21,1.48,1.95,4.03,2.22,7.66v4.63c0,11.56,0.67,33.65,2.01,66.3
				c1.21,29.56,1.81,51.72,1.81,66.5c0,1.88-0.57,3.56-1.71,5.04c-1.14,1.48-2.52,2.22-4.13,2.22
				C561.26,289.22,559.95,288.58,559.08,287.31z"/>
			<path d="M599.08,286.4c-2.29-0.67-3.42-2.55-3.42-5.64V163.68c0-2.28-0.4-5.71-1.21-10.28c-0.94-4.16-1.41-7.59-1.41-10.28v-0.6
				c2.28-3.76,3.96-6.18,5.04-7.25c1.88,0,4.36-0.27,7.46-0.81c2.82-0.54,5.31-0.81,7.46-0.81c2.15,0,4.23,0.64,6.25,1.92
				c2.01,1.28,3.02,2.79,3.02,4.53c0,4.03-3.09,6.04-9.27,6.04h-2.82c-0.81-0.13-1.75-0.2-2.82-0.2c-1.21,0-1.95,0.07-2.22,0.2
				c0,4.57,0.27,10.08,0.81,16.52l0.4,5.64l0.4,11.08c0,2.55-0.2,6.45-0.6,11.69l-0.4,11.29l2.82-0.6c2.69-0.81,4.9-1.21,6.65-1.21
				c1.48,0,2.82,0.57,4.03,1.71c1.21,1.14,1.81,2.45,1.81,3.93c0,1.61-0.5,3.06-1.51,4.33c-1.01,1.28-2.25,1.92-3.73,1.92l-2.42-0.2
				h-2.62c-2.02,0-3.43,0.47-4.23,1.41v62.27l11.29-0.6c7.66,0,11.49,1.75,11.49,5.24v0.81c-0.81,1.61-2.29,2.92-4.43,3.93
				c-2.15,1.01-4.23,1.64-6.25,1.92l-6.65,0.2h-6.25C603.17,287.41,600.96,287.07,599.08,286.4z"/>
			<path d="M655.1,286.4c-2.29-0.67-3.42-2.55-3.42-5.64V163.68c0-2.28-0.4-5.71-1.21-10.28c-0.94-4.16-1.41-7.59-1.41-10.28v-0.6
				c2.28-3.76,3.96-6.18,5.04-7.25c1.88,0,4.36-0.27,7.46-0.81c2.82-0.54,5.31-0.81,7.46-0.81c2.15,0,4.23,0.64,6.25,1.92
				c2.01,1.28,3.02,2.79,3.02,4.53c0,4.03-3.09,6.04-9.27,6.04h-2.82c-0.81-0.13-1.75-0.2-2.82-0.2c-1.21,0-1.95,0.07-2.22,0.2
				c0,4.57,0.27,10.08,0.81,16.52l0.4,5.64l0.4,11.08c0,2.55-0.2,6.45-0.6,11.69l-0.4,11.29l2.82-0.6c2.69-0.81,4.9-1.21,6.65-1.21
				c1.48,0,2.82,0.57,4.03,1.71c1.21,1.14,1.81,2.45,1.81,3.93c0,1.61-0.5,3.06-1.51,4.33c-1.01,1.28-2.25,1.92-3.73,1.92l-2.42-0.2
				h-2.62c-2.02,0-3.43,0.47-4.23,1.41v62.27l11.29-0.6c7.66,0,11.49,1.75,11.49,5.24v0.81c-0.81,1.61-2.29,2.92-4.43,3.93
				c-2.15,1.01-4.23,1.64-6.25,1.92l-6.65,0.2h-6.25C659.19,287.41,656.98,287.07,655.1,286.4z"/>
			<path d="M710.82,286.5c-1.41-1.28-2.12-2.79-2.12-4.53c0-1.21,0.27-2.69,0.81-4.43c0.4-1.88,0.6-3.29,0.6-4.23
				c0-11.96-0.67-34.93-2.02-68.92c-1.34-29.02-2.01-51.92-2.01-68.72c0-1.21,0.47-2.18,1.41-2.92c0.94-0.74,2.08-1.11,3.43-1.11
				c1.61,0,3.02,0.57,4.23,1.71c1.21,1.14,1.81,2.52,1.81,4.13c0,8.06,0.4,20.15,1.21,36.27c0.67,17.87,1.01,29.96,1.01,36.27
				l0.2,2.42v2.42v1.41v1.01c0.4,11.69,0.6,29.15,0.6,52.39v5.24h15.52c2.82,2.02,4.23,4.03,4.23,6.05c0,1.48-0.5,2.79-1.51,3.93
				c-1.01,1.14-2.19,1.71-3.53,1.71c-0.4,0-1.14-0.14-2.22-0.4l-0.81-0.2c-0.81,0.13-2.08,0.2-3.83,0.2h-3.43
				c-0.94-0.13-2.02-0.2-3.22-0.2c-1.34,1.61-3.22,2.42-5.64,2.42C713.8,288.42,712.23,287.78,710.82,286.5z"/>
			<path d="M752.03,279.95c0-3.22,2.01-4.84,6.05-4.84h2.42c0.54,0.13,1.14,0.2,1.81,0.2c1.07,0,1.84-0.33,2.32-1.01
				c0.47-0.67,0.71-1.88,0.71-3.63c0-11.42-0.67-27-2.01-46.75c-1.21-20.55-1.81-36.07-1.81-46.55c0-3.76,0.07-7.19,0.2-10.28
				l0.2-10.28c0-4.43-0.2-8.13-0.6-11.08c-1.48,0.54-3.02,0.81-4.63,0.81c-3.09,0-4.63-1.61-4.63-4.84c0-1.61,0.97-3.02,2.92-4.23
				c1.95-1.21,4.46-2.08,7.56-2.62c5.64-0.94,10.41-1.41,14.31-1.41c1.61,0,2.99,0.54,4.13,1.61c1.14,1.08,1.71,2.35,1.71,3.83
				c0,1.48-0.44,2.75-1.31,3.83c-0.88,1.08-1.98,1.61-3.33,1.61c-0.81,0-1.48-0.07-2.01-0.2h-1.61c-1.34,0-2.32,0.3-2.92,0.91
				s-0.91,1.71-0.91,3.33c0,14.24,0.87,33.85,2.62,58.84c1.61,26.2,2.42,45.88,2.42,59.04v7.66c0.94-0.13,2.28-0.2,4.03-0.2
				c5.64,0,8.46,2.35,8.46,7.05v1.21l-5.04,3.43c-0.14,0-0.54,0.03-1.21,0.1c-0.67,0.07-2.02,0.1-4.03,0.1
				c-4.57,0.27-7.39,0.4-8.46,0.4C757.8,286,752.03,283.98,752.03,279.95z"/>
			<path d="M813.28,286.4c-2.29-0.67-3.42-2.55-3.42-5.64V163.68c0-2.28-0.4-5.71-1.21-10.28c-0.94-4.16-1.41-7.59-1.41-10.28v-0.6
				c2.28-3.76,3.96-6.18,5.04-7.25c1.88,0,4.36-0.27,7.46-0.81c2.82-0.54,5.31-0.81,7.46-0.81c2.15,0,4.23,0.64,6.25,1.92
				c2.01,1.28,3.02,2.79,3.02,4.53c0,4.03-3.09,6.04-9.27,6.04h-2.82c-0.81-0.13-1.75-0.2-2.82-0.2c-1.21,0-1.95,0.07-2.22,0.2
				c0,4.57,0.27,10.08,0.81,16.52l0.4,5.64l0.4,11.08c0,2.55-0.2,6.45-0.6,11.69l-0.4,11.29l2.82-0.6c2.69-0.81,4.9-1.21,6.65-1.21
				c1.48,0,2.82,0.57,4.03,1.71c1.21,1.14,1.81,2.45,1.81,3.93c0,1.61-0.5,3.06-1.51,4.33c-1.01,1.28-2.25,1.92-3.73,1.92l-2.42-0.2
				h-2.62c-2.02,0-3.43,0.47-4.23,1.41v62.27l11.29-0.6c7.66,0,11.49,1.75,11.49,5.24v0.81c-0.81,1.61-2.29,2.92-4.43,3.93
				c-2.15,1.01-4.23,1.64-6.25,1.92l-6.65,0.2h-6.25C817.38,287.41,815.16,287.07,813.28,286.4z"/>
			<path d="M873.13,259.8c0-8.19,0.64-17.13,1.91-26.8c1.28-9.67,3.12-21.43,5.54-35.26l1.01-5.84c1.88-11.69,2.82-21.49,2.82-29.42
				c0-12.49-2.02-18.74-6.05-18.74c-2.55,0-3.83,3.02-3.83,9.07c0,1.48,0.47,5.11,1.41,10.88c0,0.13-0.34,0.54-1.01,1.21
				c-2.29,2.01-3.96,3.02-5.04,3.02c-3.76,0-5.64-4.5-5.64-13.5v-2.02c0-3.49,0.37-6.48,1.11-8.97c0.74-2.48,2.12-4.67,4.13-6.55
				c2.28-1.88,5.1-2.82,8.46-2.82c2.95,0,5.51,0.54,7.66,1.61c2.15,1.08,3.89,2.55,5.24,4.43c2.15,3.22,3.49,7.99,4.03,14.31
				c0.13,1.48,0.2,4.1,0.2,7.86c0,11.82-2.01,24.72-6.04,38.69c-1.75,5.78-3.22,13.07-4.43,21.86c-1.21,8.8-1.81,17.9-1.81,27.3
				c0,7.39,0.07,11.89,0.2,13.5c-2.42,0-3.76,0.13-4.03,0.4c-0.27,0.14-0.6,0.2-1.01,0.2C875.28,264.24,873.67,262.76,873.13,259.8z
				 M873.13,284.59c-1.48-1.34-2.22-3.02-2.22-5.04c0-1.88,0.81-3.66,2.42-5.34c1.61-1.68,3.43-2.52,5.44-2.52
				c1.61,0,3.22,0.88,4.84,2.62c1.61,1.75,2.42,3.43,2.42,5.04c0,5.11-2.69,7.66-8.06,7.66
				C875.96,287.01,874.34,286.2,873.13,284.59z"/>
			<path d="M919.99,288.42c-1.41-1.48-2.12-3.29-2.12-5.44c0-2.42,0.81-4.53,2.42-6.35s3.56-2.72,5.84-2.72
				c2.42,0,4.4,0.91,5.94,2.72c1.54,1.81,2.32,4.13,2.32,6.95c0,4.7-3.29,7.05-9.87,7.05C922.91,290.63,921.4,289.89,919.99,288.42z
				 M924.32,251.14c-1.21-3.49-1.81-8.67-1.81-15.52c0-2.42,0.13-6.98,0.4-13.7c0.27-4.97,0.4-10.48,0.4-16.52l-0.4-33.05
				l-0.4-33.05c0-2.15,0.87-4,2.62-5.54c1.75-1.54,3.69-2.32,5.84-2.32c1.34,0,2.48,0.47,3.42,1.41c0.94,0.94,1.41,2.15,1.41,3.63
				c0,11.82-0.67,27.88-2.02,48.16c-1.48,22.44-2.22,38.49-2.22,48.16c0,7.12-0.1,12.26-0.3,15.42c-0.2,3.16-0.54,5.27-1.01,6.35
				c-0.47,1.08-1.18,1.61-2.12,1.61C926.8,256.17,925.53,254.5,924.32,251.14z"/>
		</g>
	</g>
</g>
</svg>
